<svg width="243" height="243" viewBox="0 0 243 243" fill="none" xmlns="http://www.w3.org/2000/svg">
<g clip-path="url(#clip0_154_66)">
<path d="M159.334 192.86C200.571 192.86 234.001 160.88 234.001 121.43C234.001 81.9804 200.571 50 159.334 50C118.097 50 84.668 81.9804 84.668 121.43C84.668 160.88 118.097 192.86 159.334 192.86Z" fill="#FFDE2D"/>
<path d="M84.6664 192.86C125.903 192.86 159.333 160.88 159.333 121.43C159.333 81.9804 125.903 50 84.6664 50C43.4293 50 10 81.9804 10 121.43C10 160.88 43.4293 192.86 84.6664 192.86Z" fill="#327EFF"/>
<path d="M159.335 121.43C159.335 160.88 125.905 192.86 84.668 192.86V121.43H159.335ZM84.668 121.43C84.668 81.9806 118.097 50 159.335 50V121.43H84.668Z" fill="#FF6446"/>
</g>
<defs>
<clipPath id="clip0_154_66">
<rect width="224" height="143" fill="white" transform="translate(10 50)"/>
</clipPath>
</defs>
</svg>
