<svg width="243" height="243" viewBox="0 0 243 243" fill="none" xmlns="http://www.w3.org/2000/svg">
<g clip-path="url(#clip0_152_47)">
<path d="M12 12H232V232H12V12Z" fill="url(#paint0_linear_152_47)"/>
<path d="M163.413 140.638C163.413 129.888 154.608 121.141 143.785 121.141C132.962 121.141 124.161 129.888 124.161 140.638C124.161 151.389 132.963 160.135 143.786 160.135C154.609 160.135 163.413 151.388 163.413 140.638ZM168.942 140.638C168.942 154.418 157.658 165.627 143.786 165.627C129.917 165.627 118.632 154.418 118.632 140.638C118.632 126.858 129.917 115.649 143.786 115.649C157.657 115.649 168.942 126.858 168.942 140.638ZM192.152 178.302L172.878 161.057C171.321 163.232 169.525 165.225 167.524 167L186.769 184.242C188.411 185.714 190.966 185.577 192.45 183.946C193.926 182.315 193.794 179.779 192.152 178.302ZM143.786 170.569C160.402 170.569 173.92 157.142 173.92 140.637C173.92 124.131 160.402 110.706 143.786 110.706C127.172 110.706 113.654 124.131 113.654 140.638C113.654 157.142 127.172 170.57 143.786 170.57M196.558 187.622C195.657 188.61 194.56 189.399 193.336 189.938C192.113 190.476 190.79 190.753 189.453 190.75C187.099 190.755 184.827 189.89 183.071 188.322L163.059 170.396C157.494 173.967 150.89 176.062 143.786 176.062C124.123 176.062 108.125 160.17 108.125 140.638C108.125 121.105 124.123 105.215 143.786 105.215C163.452 105.215 179.449 121.105 179.449 140.638C179.449 146.242 178.097 151.527 175.754 156.241L195.853 174.224C199.756 177.731 200.072 183.737 196.558 187.622ZM70.5209 92.8295C70.5209 94.2578 70.6094 95.6801 70.7787 97.0559C70.8645 97.7566 70.677 98.4633 70.2553 99.0294C69.8336 99.5954 69.2101 99.9772 68.5142 100.096C61.7166 101.84 50.5292 107.117 50.5292 122.951C50.5292 134.907 57.1662 141.505 62.7366 144.939C64.6384 146.13 66.8883 146.764 69.2627 146.789L102.599 146.819L102.594 152.311L69.2327 152.281C65.8072 152.245 62.557 151.317 59.8053 149.596C54.2855 146.192 45 138.197 45 122.951C45 104.572 57.65 97.7778 65.075 95.3776C65.0201 94.5293 64.9926 93.6796 64.9925 92.8295C64.9925 77.8145 75.2448 62.2418 88.8402 56.6095C104.741 49.9923 121.587 53.2734 133.897 65.3802C137.713 69.1314 140.85 73.687 143.257 78.9566C146.492 76.296 150.478 74.8265 154.68 74.8265C162.937 74.8265 172.231 81.0518 173.887 94.6669C181.619 96.4372 197.957 102.627 197.957 123.162C197.957 131.362 195.37 138.133 190.264 143.29L186.322 139.438C190.374 135.347 192.428 129.871 192.428 123.162C192.428 105.201 177.29 100.732 170.777 99.6478C170.412 99.5876 170.062 99.4542 169.75 99.2556C169.437 99.0569 169.168 98.7972 168.958 98.492C168.548 97.9016 168.388 97.1733 168.513 96.4656C167.61 85.3169 160.942 80.3188 154.68 80.3188C150.73 80.3188 147.026 82.23 144.516 85.5635C144.216 85.9615 143.814 86.2711 143.352 86.4595C142.891 86.648 142.387 86.7084 141.895 86.6343C141.403 86.5615 140.94 86.3576 140.554 86.0442C140.169 85.7307 139.875 85.3192 139.703 84.8528C137.439 78.6223 134.177 73.3819 130.008 69.2852C119.34 58.7923 104.752 55.9477 90.9723 61.6789C79.5022 66.4295 70.5209 80.1099 70.5209 92.8295Z" fill="white"/>
</g>
<defs>
<linearGradient id="paint0_linear_152_47" x1="12" y1="232" x2="232" y2="12" gradientUnits="userSpaceOnUse">
<stop stop-color="#B0084D"/>
<stop offset="1" stop-color="#FF4F8B"/>
</linearGradient>
<clipPath id="clip0_152_47">
<rect width="220" height="220" fill="white" transform="translate(12 12)"/>
</clipPath>
</defs>
</svg>
