<svg width="243" height="243" viewBox="0 0 243 243" fill="none" xmlns="http://www.w3.org/2000/svg">
<path d="M215.195 105.375C214.625 104.995 209.875 101.29 199.615 101.29C196.955 101.29 194.295 101.575 191.635 102.05C189.64 88.7498 178.525 82.0048 178.05 81.7198L175.295 80.1048L173.585 82.6698C171.305 86.0898 169.5 89.9848 168.74 93.9748C166.84 101.575 167.98 108.795 171.875 114.97C167.22 117.63 159.62 118.295 158.005 118.295H32.89C29.66 118.295 27 120.955 27 124.28C27 135.205 28.71 146.13 32.51 156.39C36.785 167.695 43.245 176.055 51.51 181.185C60.82 186.885 76.115 190.115 93.5 190.115C101.005 190.115 108.795 189.45 116.49 188.025C127.13 186.125 137.39 182.42 146.795 177.005C154.584 172.551 161.556 166.8 167.41 160C177.385 148.885 183.275 136.25 187.55 125.325H189.355C200.185 125.325 206.93 120.955 210.635 117.25C213.105 114.97 214.91 112.215 216.24 108.985L217 106.705L215.195 105.375ZM44.575 114.78H61.295C62.055 114.78 62.815 114.115 62.815 113.26V98.2498C62.815 97.4898 62.15 96.7298 61.295 96.7298H44.575C43.72 96.7298 43.055 97.3948 43.055 98.2498V113.26C43.15 114.115 43.72 114.78 44.575 114.78ZM67.66 114.78H84.38C85.14 114.78 85.9 114.115 85.9 113.26V98.2498C85.9 97.4898 85.235 96.7298 84.38 96.7298H67.66C66.805 96.7298 66.14 97.3948 66.14 98.2498V113.26C66.235 114.115 66.805 114.78 67.66 114.78ZM91.125 114.78H107.75C108.7 114.78 109.365 114.115 109.365 113.26V98.2498C109.365 97.4898 108.795 96.7298 107.75 96.7298H91.125C90.365 96.7298 89.7 97.3948 89.7 98.2498V113.26C89.7 114.115 90.27 114.78 91.125 114.78ZM114.305 114.78H131.12C131.88 114.78 132.545 114.115 132.545 113.26V98.2498C132.545 97.4898 131.975 96.7298 131.12 96.7298H114.305C113.545 96.7298 112.88 97.3948 112.88 98.2498V113.26C112.88 114.115 113.545 114.78 114.305 114.78ZM67.66 93.4998H84.38C85.14 93.4998 85.9 92.6448 85.9 91.7898V76.8748C85.9 76.0198 85.235 75.3548 84.38 75.3548H67.66C66.805 75.3548 66.14 75.9248 66.14 76.8748V91.7898C66.235 92.6448 66.805 93.4998 67.66 93.4998ZM91.125 93.4998H107.75C108.7 93.4998 109.365 92.6448 109.365 91.7898V76.8748C109.365 76.0198 108.795 75.3548 107.75 75.3548H91.125C90.365 75.3548 89.7 75.9248 89.7 76.8748V91.7898C89.7 92.6448 90.27 93.4998 91.125 93.4998ZM114.305 93.4998H131.12C131.88 93.4998 132.545 92.6448 132.545 91.7898V76.8748C132.545 76.0198 131.88 75.3548 131.12 75.3548H114.305C113.545 75.3548 112.88 75.9248 112.88 76.8748V91.7898C112.88 92.6448 113.545 93.4998 114.305 93.4998ZM114.305 71.8398H131.12C131.88 71.8398 132.545 71.1748 132.545 70.3198V55.4998C132.545 54.5498 131.88 53.8848 131.12 53.8848H114.305C113.545 53.8848 112.88 54.4548 112.88 55.4998V70.3198C112.88 71.0798 113.545 71.8398 114.305 71.8398ZM137.675 114.78H154.395C155.25 114.78 155.915 114.115 155.915 113.26V98.2498C155.915 97.4898 155.25 96.7298 154.395 96.7298H137.675C136.915 96.7298 136.25 97.3948 136.25 98.2498V113.26C136.25 114.115 136.915 114.78 137.675 114.78Z" fill="#0288D1"/>
</svg>
