<svg width="243" height="243" viewBox="0 0 243 243" fill="none" xmlns="http://www.w3.org/2000/svg">
<path d="M130.171 15C113.602 25.7 110.493 39.8524 110.493 39.8524C110.493 39.8524 110.496 40.1968 110.324 40.5412C109.287 40.7151 108.597 41.0595 107.734 41.2317C106.527 41.5761 105.318 41.9222 104.109 42.6127L100.485 44.1675C98.0689 45.3746 95.653 46.4095 93.2355 47.7905C90.9918 49.1715 88.7498 50.3785 86.5062 51.9317C86.3185 51.8427 86.1445 51.7273 85.9896 51.589C63.7269 42.9604 44.0523 53.3127 44.0523 53.3127C42.3269 77.1285 53.0252 91.7993 55.0967 94.5612C54.5784 96.1144 54.0601 97.4937 53.5418 98.8746C51.8078 104.269 50.5951 109.817 49.9205 115.443C49.7483 116.133 49.7467 117.17 49.5745 117.859C29.0371 128.04 23 148.922 23 148.922C40.0849 168.597 60.1039 169.804 60.1039 169.804C62.5198 174.293 65.6245 178.78 68.9047 182.749C70.284 184.475 71.8405 186.026 73.2215 187.752C67.0088 205.527 74.2563 220.542 74.2563 220.542C93.4127 221.232 106.009 212.258 108.597 210.014C110.496 210.532 112.395 211.225 114.293 211.743C120.101 213.279 126.065 214.147 132.07 214.333H139.834C148.809 227.276 164.686 229 164.686 229C175.905 217.091 176.595 205.53 176.595 202.768V201.732C178.839 200.005 181.081 198.281 183.498 196.382C187.986 192.413 191.782 187.581 195.235 182.749C195.579 182.403 195.752 181.713 196.268 181.368C209.04 182.059 217.84 173.43 217.84 173.43C215.767 160.14 208.177 153.756 206.622 152.549L206.45 152.375L206.278 152.201L206.104 152.029C206.104 151.338 206.278 150.474 206.278 149.613C206.45 148.058 206.45 146.679 206.45 145.299V139.603C206.45 139.259 206.45 138.913 206.278 138.396L206.104 137.187L205.932 135.979C205.758 134.425 205.413 133.046 205.241 131.665C203.862 125.971 201.62 120.447 198.858 115.786C195.752 110.782 192.127 106.639 187.984 102.842C183.843 99.2174 179.183 96.1127 174.351 94.0412C169.346 91.7976 164.514 90.4183 159.338 89.9017C156.921 89.5556 154.159 89.5556 151.741 89.5556H147.772C146.393 89.7278 145.187 89.8983 143.977 90.0705C138.801 91.1071 134.141 93.0063 130 95.4222C125.857 97.8397 122.232 101.118 119.126 104.743C116.02 108.366 113.776 112.163 112.221 116.306C110.685 120.278 109.811 124.474 109.633 128.729V133.217C109.633 133.735 109.633 134.253 109.807 134.771C109.979 136.841 110.325 138.74 111.014 140.64C112.223 144.435 113.95 147.886 116.194 150.821C118.326 153.622 120.888 156.068 123.784 158.069C126.72 159.968 129.482 161.346 132.588 162.21C135.694 163.075 138.455 163.591 141.215 163.417H145.187C145.532 163.417 145.876 163.248 146.222 163.248C146.567 163.248 146.74 163.075 147.257 163.075C147.775 162.902 148.636 162.729 149.155 162.556C150.362 162.21 151.398 161.52 152.605 161.175C153.814 160.657 154.679 159.968 155.541 159.45C155.713 159.278 156.058 159.104 156.23 158.932C157.267 158.241 157.439 156.862 156.576 155.825C155.886 155.135 154.677 154.789 153.64 155.307C153.468 155.479 153.298 155.481 152.952 155.653C152.261 155.998 151.226 156.344 150.536 156.688C149.499 156.86 148.638 157.206 147.603 157.38C147.085 157.38 146.567 157.551 146.048 157.551H141.735C141.563 157.551 141.217 157.552 141.043 157.38C138.971 157.036 136.729 156.344 134.66 155.479C132.588 154.444 130.517 153.239 128.791 151.512C126.908 149.797 125.281 147.821 123.96 145.644C122.579 143.402 121.886 140.812 121.542 138.396C121.37 137.015 121.196 135.805 121.37 134.425V132.354C121.37 131.663 121.542 130.975 121.716 130.284C122.751 124.59 125.511 119.066 129.826 114.925C131.035 113.716 132.07 112.855 133.451 111.992C134.832 110.956 136.037 110.267 137.418 109.749C138.799 109.23 140.354 108.54 141.735 108.194C143.29 107.849 144.841 107.501 146.222 107.501C146.913 107.501 147.775 107.333 148.466 107.333H150.536C152.261 107.505 153.988 107.675 155.541 108.021C158.82 108.712 161.928 109.919 165.034 111.646C171.075 115.097 176.249 120.273 179.355 126.487C180.91 129.594 181.943 132.874 182.634 136.498C182.806 137.535 182.808 138.221 182.98 139.085V143.744C182.98 144.781 182.808 145.644 182.808 146.68C182.634 147.717 182.637 148.576 182.465 149.613C182.291 150.648 182.117 151.512 181.945 152.547C181.601 154.446 180.738 156.171 180.221 158.069C178.84 161.694 176.94 165.144 174.696 168.077C170.209 174.291 163.825 179.471 156.924 182.749C153.298 184.302 149.673 185.683 145.876 186.2C143.997 186.543 142.09 186.716 140.18 186.717H137.246C136.209 186.717 135.176 186.72 134.14 186.546C129.998 186.202 126.031 185.336 122.062 184.301C118.091 183.092 114.293 181.713 110.668 179.813C103.421 176.018 97.0373 170.496 91.8595 164.283C89.4437 161.005 87.0245 157.551 85.1269 154.098C83.2293 150.646 81.8483 146.679 80.8134 142.882C79.6047 139.087 79.0881 135.116 78.9159 131.145V125.105C78.9159 123.207 79.0864 121.139 79.4325 119.069C79.6047 116.996 79.9491 115.097 80.4674 113.027C80.8118 110.956 81.5039 109.056 82.0222 106.985C83.2293 103.016 84.4364 99.2207 86.1618 95.5961C89.6125 88.3485 93.9276 81.9619 99.1054 76.7841C100.406 75.4862 101.79 74.2753 103.25 73.1595C103.768 72.6412 105.148 71.4325 106.701 70.5698C108.254 69.7071 109.807 68.6705 111.532 67.98C112.225 67.6356 113.087 67.2896 113.95 66.773C114.294 66.6007 114.637 66.4285 115.328 66.2563C115.674 66.0841 116.02 65.9103 116.709 65.7381C118.436 65.0476 120.163 64.3588 121.888 63.8405C122.234 63.6683 122.925 63.6666 123.269 63.4944C123.615 63.3222 124.302 63.3239 124.647 63.1517C125.683 62.9795 126.374 62.8039 127.238 62.4595C127.582 62.2856 128.273 62.2856 128.617 62.1134C128.963 62.1134 129.654 61.9429 130 61.9429C130.346 61.9429 131.037 61.7707 131.381 61.7707L132.07 61.5968L132.759 61.4246C133.103 61.4246 133.795 61.2507 134.14 61.2507C134.658 61.2507 135.176 61.0769 135.694 61.0769C136.039 61.0769 136.9 60.908 137.246 60.908C137.59 60.908 137.766 60.908 138.282 60.7341H139.491C140.01 60.7341 140.524 60.7341 141.043 60.5619H148.812C152.263 60.7341 155.713 61.0802 158.82 61.7707C165.206 62.9778 171.59 65.0492 177.112 67.8112C182.636 70.3992 187.812 73.8483 191.953 77.4746C192.127 77.6452 192.473 77.8207 192.645 78.1651C192.819 78.3373 193.163 78.5095 193.334 78.8539C193.852 79.2 194.371 79.8905 194.889 80.2349C195.407 80.581 195.925 81.2715 196.444 81.6175C196.788 82.1358 197.477 82.6507 197.821 83.1674C199.721 85.0666 201.448 87.1381 203.001 89.0356C205.862 92.6891 208.349 96.6211 210.424 100.772C210.594 100.944 210.591 101.118 210.765 101.464C210.937 101.637 210.939 101.807 211.111 102.153C211.283 102.498 211.455 103.19 211.8 103.534C211.974 103.879 212.148 104.571 212.318 104.915C212.492 105.261 212.666 105.952 212.838 106.296C213.529 108.023 214.219 109.747 214.736 111.472C215.772 114.06 216.289 116.476 216.807 118.377C216.979 119.066 217.844 119.756 218.534 119.756C219.569 119.756 220.084 119.064 220.084 118.029C219.566 115.095 219.569 112.683 219.395 109.749C219.05 106.123 218.36 101.98 217.325 97.3198C216.289 92.6603 214.216 87.8285 211.8 82.4785C209.212 77.3024 205.933 71.7785 201.618 66.773C199.893 64.7015 197.995 62.8056 196.098 60.7341C199.204 48.827 192.473 38.2976 192.473 38.2976C180.91 37.6088 173.659 41.9222 171.071 43.8198C170.727 43.6476 170.038 43.477 169.694 43.3048C167.794 42.6144 165.723 41.75 163.653 41.0612C161.58 40.5429 159.51 39.6785 157.439 39.3341C155.367 38.8159 153.125 38.2976 150.708 37.9515C150.363 37.9515 150.017 37.7793 149.501 37.7793C144.667 21.9015 130.171 15 130.171 15Z" fill="url(#paint0_linear_152_60)"/>
<defs>
<linearGradient id="paint0_linear_152_60" x1="121.367" y1="277.252" x2="121.367" y2="81.9525" gradientUnits="userSpaceOnUse">
<stop stop-color="#FCEE1F"/>
<stop offset="1" stop-color="#F15B2A"/>
</linearGradient>
</defs>
</svg>
