<svg width="243" height="243" viewBox="0 0 243 243" fill="none" xmlns="http://www.w3.org/2000/svg">
<g clip-path="url(#clip0_152_35)">
<path d="M12 12H232V232H12V12Z" fill="url(#paint0_linear_152_35)"/>
<path d="M89.019 193.5H54.8726L92.6378 114.564L109.75 149.791L89.019 193.5ZM95.1025 107.021C94.8752 106.557 94.5223 106.165 94.0838 105.891C93.6453 105.617 93.1387 105.471 92.6215 105.47H92.6129C92.0941 105.47 91.5858 105.617 91.147 105.894C90.7081 106.171 90.3565 106.566 90.1327 107.034L48.0174 195.066C47.8175 195.485 47.7272 195.949 47.7549 196.413C47.7825 196.877 47.9272 197.326 48.1754 197.719C48.4236 198.112 48.7673 198.436 49.1744 198.66C49.5815 198.884 50.0387 199.002 50.5035 199.002L90.7635 199.001C91.2851 199.001 91.7961 198.854 92.2372 198.575C92.6783 198.297 93.0315 197.899 93.2557 197.428L115.299 150.953C115.475 150.582 115.565 150.176 115.563 149.765C115.561 149.354 115.466 148.949 115.285 148.58L95.1025 107.021ZM190.735 193.5H156.81L102.382 79.5675C102.157 79.0979 101.804 78.7015 101.364 78.4242C100.923 78.1468 100.413 77.9997 99.8927 78H77.695L77.7208 50.5H121.228L175.404 164.43C175.629 164.9 175.982 165.297 176.422 165.575C176.863 165.853 177.373 166 177.894 166H190.735V193.5ZM193.492 160.5H179.638L125.462 46.5701C125.237 46.0996 124.884 45.7024 124.443 45.4246C124.002 45.1467 123.491 44.9995 122.969 45H74.9674C74.2377 44.9995 73.5376 45.2886 73.0208 45.8036C72.5039 46.3187 72.2125 47.0178 72.2105 47.7474L72.1804 80.7474C72.1804 81.4788 72.4666 82.1774 72.9882 82.6939C73.5038 83.2112 74.2034 83.5 74.9364 83.5H98.1541L152.584 197.433C152.808 197.902 153.16 198.299 153.601 198.576C154.041 198.854 154.55 199.001 155.071 199H193.492C193.854 199 194.212 198.93 194.546 198.792C194.88 198.654 195.184 198.451 195.44 198.196C195.696 197.941 195.899 197.637 196.038 197.303C196.176 196.969 196.248 196.612 196.248 196.25V163.25C196.248 161.732 195.016 160.5 193.492 160.5Z" fill="white"/>
</g>
<defs>
<linearGradient id="paint0_linear_152_35" x1="12" y1="232" x2="232" y2="12" gradientUnits="userSpaceOnUse">
<stop stop-color="#C8511B"/>
<stop offset="1" stop-color="#FF9900"/>
</linearGradient>
<clipPath id="clip0_152_35">
<rect width="220" height="220" fill="white" transform="translate(12 12)"/>
</clipPath>
</defs>
</svg>
