<svg width="243" height="243" viewBox="0 0 243 243" fill="none" xmlns="http://www.w3.org/2000/svg">
<g clip-path="url(#clip0_152_2)">
<mask id="mask0_152_2" style="mask-type:luminance" maskUnits="userSpaceOnUse" x="8" y="8" width="228" height="228">
<path d="M8 8H236V236H8V8Z" fill="white"/>
</mask>
<g mask="url(#mask0_152_2)">
<path d="M114.533 8.05819C114.039 8.10569 112.481 8.26719 111.075 8.37169C78.699 11.2977 48.375 28.7682 29.147 55.6247C18.5355 70.3697 11.6336 87.4548 9.026 105.433C8.114 111.703 8 113.546 8 122.039C8 130.532 8.114 132.385 9.026 138.645C15.22 181.462 45.696 217.429 87.0115 230.757C94.412 233.142 102.212 234.766 111.075 235.754C114.533 236.134 129.467 236.134 132.925 235.754C148.229 234.054 161.206 230.263 173.993 223.737C175.96 222.739 176.34 222.464 176.074 222.245C169.819 213.996 163.628 205.699 157.502 197.355L139.271 172.722L116.433 138.911C108.834 127.603 101.164 116.342 93.424 105.129C93.3385 105.101 93.253 120.12 93.2055 138.474C93.139 170.584 93.1105 171.876 92.7115 172.636C92.3195 173.521 91.626 174.238 90.7545 174.66C90.042 175.021 89.4245 175.087 86.052 175.087H82.195L81.169 174.441C80.5341 174.04 80.0189 173.476 79.6775 172.807L79.2025 171.81L79.25 127.122L79.3165 82.4147L80.01 81.5407C80.4703 80.9876 81.0312 80.5266 81.663 80.1822C82.575 79.7357 82.9265 79.6977 86.793 79.6977C91.334 79.6977 92.094 79.8687 93.272 81.1607C93.6045 81.5217 105.974 100.161 120.775 122.6L165.747 190.734L183.797 218.075L184.719 217.476C193.407 211.703 201.283 204.792 208.136 196.928C222.501 180.485 231.819 160.249 234.974 138.645C235.886 132.375 236 130.532 236 122.039C236 113.546 235.886 111.703 234.974 105.433C228.78 62.6262 198.304 26.6497 156.988 13.3212C149.267 10.8661 141.316 9.20139 133.258 8.35269C131.111 8.12469 116.386 7.87769 114.543 8.06769M161.216 77.0377C161.747 77.3032 162.219 77.6718 162.606 78.122C162.992 78.5722 163.285 79.095 163.467 79.6597C163.638 80.2297 163.686 92.6272 163.638 120.557L163.572 160.628L156.514 149.798L149.427 138.968V109.841C149.427 91.0027 149.512 80.4197 149.645 79.9067C149.804 79.3137 150.081 78.759 150.46 78.2758C150.839 77.7926 151.311 77.3909 151.849 77.0947C152.771 76.6197 153.103 76.5817 156.599 76.5817C159.896 76.5817 160.475 76.6292 161.216 77.0282" fill="black"/>
</g>
</g>
<defs>
<clipPath id="clip0_152_2">
<rect width="228" height="228" fill="white" transform="translate(8 8)"/>
</clipPath>
</defs>
</svg>
