<svg width="243" height="243" viewBox="0 0 243 243" fill="none" xmlns="http://www.w3.org/2000/svg">
<g clip-path="url(#clip0_154_69)">
<path fill-rule="evenodd" clip-rule="evenodd" d="M100.999 17C108.354 16.9969 115.58 18.9253 121.956 22.5922C128.332 26.2591 133.633 31.5361 137.329 37.895L138.358 39.806L145.057 35.942C153.047 31.3262 162.336 29.4706 171.487 30.6619C180.638 31.8533 189.141 36.0253 195.684 42.5332C202.227 49.0411 206.444 57.5227 207.684 66.6671C208.924 75.8116 207.117 85.1098 202.544 93.125L201.358 95.078L208.057 98.942C216.047 103.555 222.296 110.672 225.838 119.191C229.38 127.711 230.018 137.16 227.653 146.079C225.288 154.997 220.053 162.889 212.755 168.534C205.457 174.18 196.504 177.265 187.277 177.314L184.999 177.272V185C185.001 194.238 181.959 203.218 176.341 210.552C170.724 217.885 162.846 223.162 153.927 225.566C145.007 227.969 135.544 227.365 127.003 223.847C118.461 220.329 111.318 214.093 106.679 206.105L105.629 204.194L98.9406 208.058C90.9498 212.674 81.6612 214.529 72.5104 213.338C63.3595 212.147 54.8556 207.975 48.3131 201.467C41.7705 194.959 37.5534 186.477 36.3135 177.333C35.0735 168.188 36.8798 158.89 41.4531 150.875L42.6396 148.922L35.9406 145.058C27.9502 140.445 21.7014 133.328 18.1594 124.809C14.6175 116.289 13.9795 106.84 16.3442 97.9215C18.7088 89.003 23.9444 81.1114 31.2421 75.4658C38.5399 69.8201 47.4936 66.7346 56.7201 66.686L58.9986 66.728V59C58.9986 47.8609 63.4236 37.178 71.3001 29.3015C79.1766 21.425 89.8595 17 100.999 17ZM150.37 130.264L149.656 172.894C149.63 174.475 149.247 176.03 148.536 177.443C147.825 178.855 146.805 180.089 145.55 181.052L144.406 181.808L123.868 193.673C125.804 197.911 129.093 201.386 133.218 203.551C137.344 205.717 142.071 206.45 146.659 205.637C151.247 204.823 155.434 202.508 158.563 199.056C161.692 195.604 163.586 191.21 163.946 186.565L163.999 185V138.443L150.37 130.264ZM129.023 150.707L91.7481 171.392L90.5091 171.98C87.9753 172.981 85.1515 172.959 82.6341 171.917L81.4056 171.308L60.8676 159.443L59.9226 160.871C57.5924 164.742 56.5727 169.261 57.0149 173.757C57.4571 178.254 59.3377 182.487 62.3773 185.83C65.417 189.173 69.4536 191.446 73.8878 192.312C78.3221 193.178 82.9174 192.592 86.9916 190.639L88.4406 189.872L128.761 166.594L129.023 150.707ZM157.247 93.8495L143.345 101.567L179.906 123.502L181.03 124.279C183.166 125.973 184.559 128.432 184.915 131.135L184.999 132.5V156.23L186.7 156.314C191.214 156.395 195.635 155.018 199.306 152.388C202.976 149.758 205.701 146.015 207.077 141.714C208.452 137.413 208.405 132.784 206.942 128.512C205.478 124.24 202.677 120.554 198.953 118L197.557 117.128L157.247 93.8495ZM58.9986 87.7805C54.3633 87.3299 49.7097 88.432 45.769 90.9138C41.8283 93.3956 38.8238 97.1163 37.2276 101.491C35.6315 105.866 35.5341 110.648 36.9509 115.084C38.3676 119.52 41.2181 123.36 45.0546 126.001L46.4406 126.872L86.7606 150.151L100.652 142.433L64.1016 120.509C62.7447 119.695 61.5894 118.584 60.7221 117.26C59.8548 115.937 59.2979 114.434 59.0931 112.865L58.9986 111.5V87.7805ZM122.146 113.338L114.565 117.538L114.418 126.211L121.852 130.673L129.433 126.463L129.58 117.79L122.146 113.338ZM100.999 38C95.7005 37.9983 90.5976 39.9993 86.7128 43.6017C82.828 47.2042 80.4484 52.1419 80.0511 57.425L79.9986 59V105.557L93.6276 113.737L94.3416 71.1065L94.4466 69.7415C94.847 67.0433 96.2818 64.6069 98.4471 62.948L99.5916 62.192L120.14 50.327L119.426 48.9095C117.616 45.6052 114.95 42.8488 111.707 40.9294C108.465 39.0099 104.766 37.9981 100.999 38ZM184.243 61.814C181.6 57.2355 177.328 53.8222 172.279 52.2553C167.23 50.6885 161.776 51.0835 157.006 53.3615L155.557 54.128L115.237 77.4065L114.974 93.293L152.249 72.608C153.631 71.8401 155.168 71.3941 156.746 71.3032C158.324 71.2123 159.902 71.4788 161.363 72.083L162.592 72.692L183.14 84.557C187.781 78.047 188.495 69.1745 184.243 61.814Z" fill="black"/>
</g>
<defs>
<clipPath id="clip0_154_69">
<rect width="243" height="243" fill="white"/>
</clipPath>
</defs>
</svg>
