<svg width="243" height="243" viewBox="0 0 243 243" fill="none" xmlns="http://www.w3.org/2000/svg">
<path d="M101.847 27.8335C94.7043 27.8335 87.8541 30.6709 82.8035 35.7216C77.7528 40.7723 74.9154 47.6224 74.9154 54.7652V70.5852H115.313C118.985 70.5852 121.999 75.9527 121.999 79.6252H54.7637C47.621 79.6252 40.7708 82.4626 35.7201 87.5133C30.6695 92.5639 27.832 99.4141 27.832 106.557V142.161C27.832 149.304 30.6695 156.154 35.7201 161.205C40.7708 166.255 47.621 169.093 54.7637 169.093H65.8754V143.856C65.863 140.324 66.548 136.824 67.8912 133.557C69.2343 130.29 71.2092 127.32 73.7025 124.818C76.1958 122.316 79.1586 120.331 82.4208 118.976C85.683 117.622 89.1806 116.925 92.7129 116.925H142.15C157.029 116.925 169.082 104.956 169.082 90.0777V54.7652C169.082 47.6224 166.245 40.7723 161.194 35.7216C156.143 30.6709 149.293 27.8335 142.15 27.8335H101.847ZM95.067 42.9943C98.8337 42.9943 101.847 44.1243 101.847 49.6802C101.847 55.236 98.8337 58.0704 95.067 58.0704C91.3945 58.0704 88.3812 55.2454 88.3812 49.6896C88.3812 44.1337 91.3945 42.9943 95.067 42.9943Z" fill="#0288D1"/>
<path d="M178.115 74.9165V100.153C178.126 103.685 177.44 107.184 176.097 110.449C174.753 113.715 172.778 116.684 170.285 119.185C167.792 121.686 164.829 123.67 161.568 125.024C158.306 126.378 154.809 127.075 151.278 127.075H101.85C98.3174 127.063 94.8174 127.748 91.5504 129.091C88.2835 130.434 85.3138 132.409 82.8118 134.903C80.3097 137.396 78.3244 140.359 76.9698 143.621C75.6152 146.883 74.9179 150.381 74.918 153.913V189.225C74.918 196.368 77.7554 203.218 82.8061 208.269C87.8567 213.32 94.7069 216.157 101.85 216.157H142.153C149.294 216.157 156.143 213.321 161.193 208.272C166.244 203.224 169.082 196.376 169.085 189.235V173.415H128.678C125.005 173.415 122.001 168.047 122.001 164.375H189.236C196.379 164.375 203.229 161.537 208.28 156.487C213.331 151.436 216.168 144.586 216.168 137.443V101.848C216.168 94.7054 213.331 87.8553 208.28 82.8046C203.229 77.7539 196.379 74.9165 189.236 74.9165H178.115ZM87.348 117.414L87.3103 117.452L87.6681 117.414H87.348ZM148.933 185.93C152.605 185.93 155.619 188.755 155.619 194.31C155.619 195.188 155.446 196.058 155.11 196.869C154.774 197.68 154.281 198.417 153.661 199.038C153.04 199.659 152.303 200.151 151.492 200.487C150.68 200.823 149.811 200.996 148.933 200.996C145.166 200.996 142.153 199.866 142.153 194.31C142.153 188.755 145.166 185.93 148.933 185.93Z" fill="#FDD835"/>
</svg>
