<svg width="243" height="243" viewBox="0 0 243 243" fill="none" xmlns="http://www.w3.org/2000/svg">
<g clip-path="url(#clip0_152_53)">
<path d="M12 12H232V232H12V12Z" fill="url(#paint0_linear_152_53)"/>
<path d="M179.299 129.954L180.355 122.519C190.092 128.351 190.219 130.76 190.216 130.826C190.199 130.84 188.539 132.226 179.299 129.954ZM173.955 128.469C157.125 123.376 133.688 112.624 124.203 108.141C124.203 108.103 124.214 108.068 124.214 108.029C124.214 104.385 121.249 101.42 117.603 101.42C113.961 101.42 110.997 104.385 110.997 108.029C110.997 111.673 113.961 114.638 117.603 114.638C119.203 114.638 120.655 114.04 121.801 113.091C132.961 118.374 156.218 128.97 173.171 133.975L166.468 181.291C166.449 181.42 166.439 181.55 166.44 181.679C166.44 185.845 147.995 193.499 117.858 193.499C87.4016 193.499 68.7617 185.845 68.7617 181.679C68.7617 181.553 68.7537 181.428 68.7377 181.305L54.7298 78.9863C66.8539 87.3326 92.9325 91.748 117.875 91.748C142.779 91.748 168.813 87.348 180.962 79.0276L173.955 128.469ZM53.25 68.3129C53.4477 64.6949 74.2428 50.498 117.875 50.498C161.5 50.498 182.299 64.6915 182.5 68.3129V69.5478C180.107 77.6629 153.157 86.2489 117.875 86.2489C82.5315 86.2489 55.5677 77.6354 53.25 69.5091V68.3129ZM188 68.373C188 58.8452 160.68 44.998 117.875 44.998C75.0678 44.998 47.75 58.8452 47.75 68.373L48.0078 70.4476L63.2652 181.888C63.6313 194.351 96.8667 198.998 117.858 198.998C143.905 198.998 171.579 193.009 171.937 181.896L178.526 135.43C182.191 136.307 185.209 136.755 187.631 136.755C190.884 136.755 193.084 135.96 194.418 134.371C195.513 133.068 195.93 131.489 195.617 129.808C194.904 126.003 190.386 121.9 181.185 116.65L187.719 70.5541L188 68.373Z" fill="white"/>
</g>
<defs>
<linearGradient id="paint0_linear_152_53" x1="12" y1="232" x2="232" y2="12" gradientUnits="userSpaceOnUse">
<stop stop-color="#1B660F"/>
<stop offset="1" stop-color="#6CAE3E"/>
</linearGradient>
<clipPath id="clip0_152_53">
<rect width="220" height="220" fill="white" transform="translate(12 12)"/>
</clipPath>
</defs>
</svg>
