<svg width="243" height="243" viewBox="0 0 243 243" fill="none" xmlns="http://www.w3.org/2000/svg">
<g clip-path="url(#clip0_152_18)">
<path d="M213.12 120.074L120.074 213.119C118.471 214.892 117.61 217.214 117.67 219.603C117.73 221.993 118.706 224.268 120.396 225.959C122.086 227.649 124.362 228.625 126.752 228.685C129.141 228.745 131.463 227.884 133.235 226.28L226.281 133.235C227.885 131.462 228.745 129.141 228.686 126.751C228.626 124.361 227.65 122.086 225.959 120.396C224.269 118.705 221.994 117.729 219.604 117.669C217.214 117.61 214.893 118.47 213.12 120.074ZM194.511 17.7196L17.7201 194.51C16.1165 196.283 15.2556 198.605 15.3154 200.994C15.3753 203.384 16.3513 205.659 18.0417 207.35C19.732 209.04 22.0073 210.016 24.3971 210.076C26.7869 210.136 29.1082 209.275 30.8811 207.671L207.672 30.8806C209.275 29.1077 210.136 26.7864 210.076 24.3966C210.017 22.0069 209.041 19.7315 207.35 18.0412C205.66 16.3508 203.385 15.3748 200.995 15.3149C198.605 15.2551 196.284 16.116 194.511 17.7196Z" fill="black"/>
</g>
<defs>
<clipPath id="clip0_152_18">
<rect width="214" height="214" fill="white" transform="translate(15 15)"/>
</clipPath>
</defs>
</svg>
