<svg width="243" height="243" viewBox="0 0 243 243" fill="none" xmlns="http://www.w3.org/2000/svg">
<g clip-path="url(#clip0_152_30)">
<path d="M122.008 54.8037C92.1406 54.8037 73.4803 69.7312 66.0078 99.5985C77.2043 84.6692 90.2751 79.071 105.204 82.8037C113.729 84.9282 119.82 91.1092 126.567 97.9587C137.546 109.101 150.255 122 178.008 122C207.873 122 226.535 107.071 234.008 77.1967C222.808 92.1335 209.742 97.7347 194.81 94.0002C186.287 91.874 180.202 85.6947 173.447 78.8452C162.475 67.703 149.77 54.8037 122.008 54.8037ZM66.0078 122C36.1423 122 17.4803 136.929 10.0078 166.804C21.2066 151.867 34.2721 146.266 49.2043 150C57.7286 152.126 63.8203 158.306 70.5666 165.155C81.5461 176.297 94.2546 189.197 122.008 189.197C151.873 189.197 170.535 174.269 178.008 144.402C166.808 159.332 153.742 164.93 138.81 161.197C130.287 159.072 124.202 152.891 117.447 146.042C106.475 134.899 93.7698 122 66.0078 122Z" fill="#38BDF8"/>
</g>
<defs>
<clipPath id="clip0_152_30">
<rect width="224" height="224" fill="white" transform="translate(10 10)"/>
</clipPath>
</defs>
</svg>
